<svg width="500" height="351" viewBox="0 0 500 351" fill="none" xmlns="http://www.w3.org/2000/svg">
<g clip-path="url(#clip0)">
<path d="M146.847 271.763H88.3063L90.2907 245.728H144.862L146.847 271.763Z" fill="#E6E6E6"/>
<path d="M150.815 268.759H85.3297V274.767H150.815V268.759Z" fill="#E6E6E6"/>
<path d="M229.696 78H5.95323C4.37434 78 2.86011 78.633 1.74366 79.7597C0.627215 80.8865 0 82.4147 0 84.0081V221.695H235.649V84.0081C235.649 82.4147 235.022 80.8865 233.905 79.7597C232.789 78.633 231.274 78 229.696 78V78Z" fill="#3F3D56"/>
<path d="M0 221.695V244.225C0 245.014 0.153983 245.796 0.453161 246.525C0.752339 247.254 1.19085 247.916 1.74366 248.474C2.29647 249.032 2.95275 249.474 3.67503 249.776C4.39731 250.078 5.17144 250.233 5.95323 250.233H229.696C230.477 250.233 231.252 250.078 231.974 249.776C232.696 249.474 233.352 249.032 233.905 248.474C234.458 247.916 234.896 247.254 235.196 246.525C235.495 245.796 235.649 245.014 235.649 244.225V221.695H0Z" fill="#E6E6E6"/>
<path d="M224.238 90.5168H11.9064V210.68H224.238V90.5168Z" fill="#E6E6E6"/>
<path d="M118.072 241.722C121.36 241.722 124.026 239.032 124.026 235.714C124.026 232.396 121.36 229.706 118.072 229.706C114.785 229.706 112.119 232.396 112.119 235.714C112.119 239.032 114.785 241.722 118.072 241.722Z" fill="#3F3D56"/>
<path d="M18.527 95.5924C19.151 95.5924 19.6568 95.0819 19.6568 94.4522C19.6568 93.8225 19.151 93.312 18.527 93.312C17.9031 93.312 17.3973 93.8225 17.3973 94.4522C17.3973 95.0819 17.9031 95.5924 18.527 95.5924Z" fill="white"/>
<path d="M22.8154 95.5924C23.4393 95.5924 23.9451 95.0819 23.9451 94.4522C23.9451 93.8225 23.4393 93.312 22.8154 93.312C22.1914 93.312 21.6856 93.8225 21.6856 94.4522C21.6856 95.0819 22.1914 95.5924 22.8154 95.5924Z" fill="white"/>
<path d="M27.1037 95.5924C27.7277 95.5924 28.2335 95.0819 28.2335 94.4522C28.2335 93.8225 27.7277 93.312 27.1037 93.312C26.4798 93.312 25.9739 93.8225 25.9739 94.4522C25.9739 95.0819 26.4798 95.5924 27.1037 95.5924Z" fill="white"/>
<path d="M243.76 159.265C243.76 159.265 245.58 183.139 243.032 183.873C240.485 184.608 231.386 190.117 216.829 188.648C216.829 188.648 202.635 196.361 204.819 189.016C207.003 181.67 216.829 183.506 216.829 183.506C216.829 183.506 234.298 179.833 235.026 177.262C235.754 174.691 232.842 164.039 233.934 163.672C235.026 163.305 243.76 159.265 243.76 159.265Z" fill="#FFB8B8"/>
<path opacity="0.2" d="M242.536 159.573C242.536 159.573 244.356 183.448 241.808 184.182C239.26 184.917 230.162 190.426 215.605 188.957C215.605 188.957 201.411 196.67 203.595 189.324C205.778 181.978 215.605 183.815 215.605 183.815C215.605 183.815 233.074 180.142 233.801 177.571C234.529 175 231.618 164.348 232.71 163.981C233.801 163.614 242.536 159.573 242.536 159.573Z" fill="#231F20"/>
<path d="M222.101 197.979C222.101 197.979 223.38 238.161 225.564 243.303C227.382 247.586 228.444 261.553 228.748 266.1C228.808 267.012 228.839 267.544 228.839 267.544C228.839 267.544 234.662 267.544 235.026 266.075C235.39 264.606 236.482 248.445 235.026 243.303C233.57 238.161 237.1 200.142 237.1 200.142L222.101 197.979Z" fill="#2F2E41"/>
<path d="M230.295 265.708C230.295 265.708 226.655 266.81 225.927 268.279C225.2 269.748 213.19 272.319 216.829 274.155C220.468 275.992 231.386 272.686 231.386 272.686C231.386 272.686 237.209 272.319 236.846 270.115C236.482 267.911 235.156 265.196 235.156 265.196L230.295 265.708Z" fill="#2F2E41"/>
<path d="M240.485 266.882C240.485 266.882 236.846 267.984 236.118 269.453C235.39 270.922 223.38 273.493 227.019 275.33C230.659 277.166 241.577 273.861 241.577 273.861C241.577 273.861 247.4 273.493 247.036 271.29C246.672 269.086 245.347 266.37 245.347 266.37L240.485 266.882Z" fill="#2F2E41"/>
<path d="M225.2 200.034L230.295 208.849L238.798 239.498C238.798 239.498 237.937 267.617 239.029 267.617C240.121 267.617 245.944 269.453 246.308 267.617C246.615 266.065 250.692 251.205 248.66 241.314C247.338 235.063 246.488 228.719 246.117 222.338L245.216 205.176C245.216 205.176 248.855 198.565 244.852 197.463C240.849 196.361 225.2 200.034 225.2 200.034Z" fill="#2F2E41"/>
<path d="M229.931 143.471C234.755 143.471 238.665 139.524 238.665 134.656C238.665 129.787 234.755 125.841 229.931 125.841C225.107 125.841 221.196 129.787 221.196 134.656C221.196 139.524 225.107 143.471 229.931 143.471Z" fill="#FFB8B8"/>
<path d="M228.839 140.533C228.839 140.533 230.295 152.286 229.931 153.021C229.567 153.755 238.665 144.94 238.665 144.94C238.665 144.94 235.39 139.798 236.118 137.227L228.839 140.533Z" fill="#FFB8B8"/>
<path d="M249.219 152.286C249.219 152.286 239.029 144.94 238.665 143.471L231.023 150.082L229.724 148.522C229.724 148.522 223.744 154.49 223.744 157.061C223.744 159.632 223.38 167.345 224.472 169.549C225.563 171.753 221.196 199.667 221.196 199.667C221.196 199.667 224.836 202.973 225.2 203.34C225.563 203.707 240.121 201.136 240.121 201.136C240.121 201.136 247.4 200.402 247.4 199.3C247.4 198.198 245.216 181.67 245.944 177.262C246.672 172.855 249.219 152.286 249.219 152.286Z" fill="#575A89"/>
<path d="M226.2 130.252C227.394 129.823 228.711 129.603 229.928 129.959C231.651 130.462 232.845 131.986 234.132 133.247C235.419 134.508 237.223 135.625 238.918 135.032C238.816 134.291 239.009 133.539 239.454 132.94C239.676 132.717 239.839 132.443 239.93 132.141C240.003 131.669 239.609 131.261 239.491 130.799C239.285 129.988 239.851 128.878 239.155 128.423C238.971 128.304 238.738 128.276 238.558 128.15C237.854 127.653 238.636 126.417 238.17 125.688C238.031 125.5 237.85 125.347 237.641 125.242C234.264 123.254 230.134 123.248 226.224 123.298C225.68 123.305 224.922 123.578 225.076 124.105C224.337 123.57 223.37 124.322 222.774 125.015L221.555 126.435C220.982 127.053 220.482 127.735 220.065 128.469C219.693 129.188 219.611 130.292 220.352 130.606C219.801 130.373 219.132 133.666 221.672 133.125C223.148 132.81 224.595 130.829 226.2 130.252Z" fill="#2F2E41"/>
<path d="M218.119 98.3267H17.3973V199.244H218.119V98.3267Z" fill="white"/>
<path d="M73.3857 113.157H29.5154V151.827H73.3857V113.157Z" fill="#E6E6E6"/>
<path d="M139.761 113.273H96.0228V151.827H139.761V113.273Z" fill="#E6E6E6"/>
<path d="M206.001 112.895H161.833V151.827H206.001V112.895Z" fill="#E6E6E6"/>
<path d="M72.4233 168.706H29.5154V172.707H72.4233V168.706Z" fill="#E6E6E6"/>
<path d="M51.0134 175.749H29.5154V179.749H51.0134V175.749Z" fill="#FF7A00"/>
<path d="M139.646 168.706H96.7378V172.707H139.646V168.706Z" fill="#E6E6E6"/>
<path d="M118.236 175.749H96.7378V179.749H118.236V175.749Z" fill="#FF7A00"/>
<path d="M205.188 168.706H162.28V172.707H205.188V168.706Z" fill="#E6E6E6"/>
<path d="M183.778 175.749H162.28V179.749H183.778V175.749Z" fill="#FF7A00"/>
<path d="M110.069 162.298C111.188 162.298 112.095 161.382 112.095 160.253C112.095 159.124 111.188 158.209 110.069 158.209C108.951 158.209 108.044 159.124 108.044 160.253C108.044 161.382 108.951 162.298 110.069 162.298Z" fill="#FF7A00"/>
<path d="M117.758 162.298C118.877 162.298 119.784 161.382 119.784 160.253C119.784 159.124 118.877 158.209 117.758 158.209C116.639 158.209 115.732 159.124 115.732 160.253C115.732 161.382 116.639 162.298 117.758 162.298Z" fill="#E6E6E6"/>
<path d="M125.447 162.298C126.565 162.298 127.472 161.382 127.472 160.253C127.472 159.124 126.565 158.209 125.447 158.209C124.328 158.209 123.421 159.124 123.421 160.253C123.421 161.382 124.328 162.298 125.447 162.298Z" fill="#E6E6E6"/>
<path d="M43.7619 162.298C44.8806 162.298 45.7875 161.382 45.7875 160.253C45.7875 159.124 44.8806 158.209 43.7619 158.209C42.6432 158.209 41.7363 159.124 41.7363 160.253C41.7363 161.382 42.6432 162.298 43.7619 162.298Z" fill="#FF7A00"/>
<path d="M51.4506 162.298C52.5693 162.298 53.4762 161.382 53.4762 160.253C53.4762 159.124 52.5693 158.209 51.4506 158.209C50.3319 158.209 49.425 159.124 49.425 160.253C49.425 161.382 50.3319 162.298 51.4506 162.298Z" fill="#FF7A00"/>
<path d="M59.1392 162.298C60.2579 162.298 61.1648 161.382 61.1648 160.253C61.1648 159.124 60.2579 158.209 59.1392 158.209C58.0205 158.209 57.1136 159.124 57.1136 160.253C57.1136 161.382 58.0205 162.298 59.1392 162.298Z" fill="#E6E6E6"/>
<path d="M178.012 162.298C179.131 162.298 180.038 161.382 180.038 160.253C180.038 159.124 179.131 158.209 178.012 158.209C176.893 158.209 175.986 159.124 175.986 160.253C175.986 161.382 176.893 162.298 178.012 162.298Z" fill="#FF7A00"/>
<path d="M185.701 162.298C186.819 162.298 187.726 161.382 187.726 160.253C187.726 159.124 186.819 158.209 185.701 158.209C184.582 158.209 183.675 159.124 183.675 160.253C183.675 161.382 184.582 162.298 185.701 162.298Z" fill="#FF7A00"/>
<path d="M193.389 162.298C194.508 162.298 195.415 161.382 195.415 160.253C195.415 159.124 194.508 158.209 193.389 158.209C192.271 158.209 191.364 159.124 191.364 160.253C191.364 161.382 192.271 162.298 193.389 162.298Z" fill="#FF7A00"/>
<path d="M183.917 121.028C181.696 121.028 179.525 121.693 177.678 122.938C175.831 124.183 174.392 125.953 173.542 128.024C172.692 130.095 172.47 132.374 172.903 134.572C173.336 136.771 174.406 138.79 175.976 140.375C177.547 141.96 179.548 143.039 181.726 143.477C183.905 143.914 186.162 143.69 188.214 142.832C190.266 141.974 192.02 140.521 193.254 138.658C194.488 136.794 195.147 134.603 195.147 132.361C195.138 129.358 193.952 126.481 191.848 124.357C189.744 122.234 186.893 121.037 183.917 121.028V121.028ZM183.917 124.428C184.583 124.428 185.235 124.627 185.789 125.001C186.343 125.375 186.774 125.906 187.029 126.527C187.284 127.148 187.351 127.832 187.221 128.491C187.091 129.151 186.77 129.757 186.299 130.232C185.828 130.708 185.228 131.031 184.574 131.163C183.921 131.294 183.243 131.226 182.628 130.969C182.012 130.712 181.486 130.276 181.116 129.717C180.746 129.158 180.548 128.5 180.548 127.828C180.551 126.927 180.907 126.064 181.538 125.427C182.169 124.79 183.024 124.431 183.917 124.428ZM183.917 140.796C182.586 140.79 181.277 140.456 180.103 139.824C178.929 139.191 177.925 138.279 177.179 137.167C177.233 134.9 181.671 133.653 183.917 133.653C186.163 133.653 190.601 134.9 190.655 137.167C189.908 138.278 188.904 139.19 187.73 139.822C186.556 140.454 185.248 140.788 183.917 140.796V140.796Z" fill="#FF7A00"/>
<path d="M117.892 121.217C115.671 121.217 113.5 121.882 111.653 123.127C109.807 124.372 108.367 126.142 107.517 128.213C106.667 130.284 106.445 132.563 106.878 134.761C107.311 136.96 108.381 138.979 109.951 140.564C111.522 142.149 113.523 143.228 115.701 143.666C117.88 144.103 120.137 143.878 122.189 143.021C124.241 142.163 125.995 140.71 127.229 138.847C128.463 136.983 129.122 134.792 129.122 132.55C129.113 129.547 127.927 126.67 125.823 124.546C123.719 122.423 120.868 121.226 117.892 121.217V121.217ZM117.892 124.617C118.558 124.617 119.21 124.816 119.764 125.19C120.318 125.564 120.749 126.095 121.004 126.716C121.259 127.337 121.326 128.021 121.196 128.68C121.066 129.34 120.745 129.946 120.274 130.421C119.803 130.897 119.203 131.22 118.549 131.352C117.896 131.483 117.218 131.415 116.603 131.158C115.987 130.901 115.461 130.465 115.091 129.906C114.721 129.347 114.523 128.689 114.523 128.017C114.526 127.116 114.882 126.253 115.513 125.616C116.144 124.979 116.999 124.62 117.892 124.617V124.617ZM117.892 140.985C116.561 140.979 115.252 140.645 114.078 140.013C112.904 139.38 111.9 138.468 111.154 137.356C111.208 135.089 115.646 133.842 117.892 133.842C120.138 133.842 124.576 135.089 124.63 137.356C123.883 138.467 122.879 139.379 121.705 140.011C120.531 140.643 119.223 140.977 117.892 140.985V140.985Z" fill="#FF7A00"/>
<path d="M51.4506 121.159C49.2296 121.159 47.0585 121.824 45.2118 123.069C43.3651 124.314 41.9258 126.084 41.0758 128.155C40.2259 130.226 40.0035 132.505 40.4368 134.703C40.8701 136.902 41.9396 138.921 43.5101 140.506C45.0806 142.091 47.0815 143.17 49.2598 143.608C51.4382 144.045 53.696 143.82 55.748 142.963C57.7999 142.105 59.5538 140.652 60.7877 138.789C62.0216 136.925 62.6802 134.734 62.6802 132.492C62.6715 129.489 61.4856 126.612 59.3815 124.488C57.2774 122.365 54.4262 121.168 51.4506 121.159ZM51.4506 124.559C52.1169 124.559 52.7683 124.758 53.3223 125.132C53.8763 125.505 54.3081 126.036 54.5631 126.658C54.818 127.279 54.8848 127.963 54.7548 128.622C54.6248 129.282 54.3039 129.887 53.8328 130.363C53.3616 130.838 52.7614 131.162 52.1079 131.293C51.4544 131.425 50.777 131.357 50.1614 131.1C49.5458 130.843 49.0197 130.407 48.6495 129.848C48.2793 129.289 48.0817 128.631 48.0817 127.959C48.0847 127.058 48.4406 126.195 49.0718 125.558C49.7029 124.921 50.5581 124.562 51.4506 124.559V124.559ZM51.4506 140.927C50.1198 140.921 48.8105 140.587 47.6364 139.954C46.4623 139.322 45.4587 138.41 44.7129 137.298C44.7668 135.031 49.2047 133.783 51.4506 133.783C53.6965 133.783 58.1344 135.031 58.1884 137.298C57.4416 138.409 56.4379 139.321 55.264 139.953C54.0901 140.585 52.7812 140.919 51.4506 140.927V140.927Z" fill="#FF7A00"/>
<path d="M251.403 162.57C251.403 162.57 253.223 186.444 250.675 187.179C248.128 187.914 239.029 193.423 224.472 191.954C224.472 191.954 210.278 199.667 212.462 192.321C214.645 184.975 224.472 186.812 224.472 186.812C224.472 186.812 241.941 183.139 242.669 180.568C243.396 177.997 240.485 167.345 241.577 166.978C242.669 166.611 251.403 162.57 251.403 162.57Z" fill="#FFB8B8"/>
<path d="M243.396 153.021L249.219 152.286C249.219 152.286 255.042 163.672 251.767 165.509C248.492 167.345 240.121 168.814 240.121 168.08C240.121 167.345 243.396 153.021 243.396 153.021Z" fill="#575A89"/>
</g>
<mask id="mask0" mask-type="alpha" maskUnits="userSpaceOnUse" x="325" y="72" width="174" height="207">
<path d="M498.689 226.296V279H337.121V237.24L409.985 169.848C416.321 163.896 420.545 158.808 422.657 154.584C424.769 150.36 425.825 146.232 425.825 142.2C425.825 137.208 424.097 133.368 420.641 130.68C417.377 127.8 412.577 126.36 406.241 126.36C400.097 126.36 394.337 127.992 388.961 131.256C383.585 134.52 379.457 139.128 376.577 145.08L325.313 119.448C332.993 105.048 344.225 93.72 359.009 85.464C373.793 77.016 391.649 72.792 412.577 72.792C428.513 72.792 442.625 75.384 454.913 80.568C467.201 85.752 476.801 93.144 483.713 102.744C490.625 112.344 494.081 123.384 494.081 135.864C494.081 147 491.681 157.464 486.881 167.256C482.273 176.856 473.153 187.8 459.521 200.088L430.721 226.296H498.689Z" fill="#FF7A00"/>
</mask>
<g mask="url(#mask0)">
<rect x="304.924" y="48" width="246.212" height="260" rx="123.106" fill="url(#paint0_linear)"/>
</g>
<defs>
<linearGradient id="paint0_linear" x1="304.924" y1="176.395" x2="551.136" y2="176.395" gradientUnits="userSpaceOnUse">
<stop stop-color="#FFB800"/>
<stop offset="1" stop-color="#E76F00"/>
</linearGradient>
<clipPath id="clip0">
<rect width="252.767" height="197.885" fill="white" transform="translate(0 78)"/>
</clipPath>
</defs>
</svg>
