<svg width="21" height="21" viewBox="0 0 21 21" fill="none" xmlns="http://www.w3.org/2000/svg">
<path d="M14.0559 10.4997L20.2636 4.29254C21.2458 3.31031 21.2458 1.71802 20.2636 0.736295C19.2824 -0.245432 17.6891 -0.245432 16.7078 0.736295L10.5001 6.94451L4.29241 0.736295C3.31119 -0.245432 1.7179 -0.245432 0.736672 0.736295C-0.245557 1.71852 -0.245557 3.31081 0.736672 4.29254L6.94388 10.4997L0.736672 16.707C-0.245557 17.6892 -0.245557 19.2815 0.736672 20.2632C1.22703 20.7546 1.87129 20.9995 2.51454 20.9995C3.15729 20.9995 3.80205 20.7546 4.29241 20.2632L10.5001 14.056L16.7078 20.2637C17.1987 20.7551 17.8425 21 18.4857 21C19.129 21 19.7732 20.7551 20.2636 20.2637C21.2458 19.2815 21.2458 17.6892 20.2636 16.7075L14.0559 10.4997Z" fill="white"/>
</svg>
