<svg width="40" height="30" viewBox="0 0 40 30" fill="none" xmlns="http://www.w3.org/2000/svg">
<path d="M35.9231 0H3.46152C2.92867 0 2.42982 0.131 1.97852 0.346923L19.6154 17.9838L23.5684 14.1848C23.5684 14.1848 23.5687 14.1844 23.5688 14.1842C23.5688 14.1841 23.5691 14.1839 23.5691 14.1839L37.4066 0.347231C36.9552 0.131154 36.4561 0 35.9231 0Z" fill="white"/>
<path d="M39.0382 1.97876L26.0164 14.9998L39.0377 28.0211C39.2536 27.5698 39.3847 27.071 39.3847 26.5381V3.46122C39.3847 2.92868 39.254 2.42991 39.0382 1.97876Z" fill="white"/>
<path d="M0.346923 1.97827C0.131 2.42958 0 2.92843 0 3.46127V26.5382C0 27.0707 0.130846 27.5697 0.346615 28.0208L13.3684 14.9997L0.346923 1.97827Z" fill="white"/>
<path d="M24.3848 16.6315L20.4313 20.431C20.2059 20.6563 19.9106 20.769 19.6155 20.769C19.3203 20.769 19.025 20.6563 18.7997 20.431L15 16.6313L1.97803 29.6525C2.42941 29.8686 2.92857 29.9997 3.46157 29.9997H35.9231C36.456 29.9997 36.9548 29.8687 37.4061 29.6528L24.3848 16.6315Z" fill="white"/>
</svg>
