<svg width="510" height="351" viewBox="0 0 510 351" fill="none" xmlns="http://www.w3.org/2000/svg">
<g opacity="0.5">
<path opacity="0.5" d="M358.132 66H269.882C269.208 66 268.661 66.5956 268.661 67.3303V214.072C268.661 214.806 269.208 215.402 269.882 215.402H358.132C358.807 215.402 359.353 214.806 359.353 214.072V67.3303C359.353 66.5956 358.807 66 358.132 66Z" fill="url(#paint0_linear)"/>
</g>
<path d="M356.969 67.0969H271.043C270.369 67.0969 269.822 67.6925 269.822 68.4272V212.147C269.822 212.882 270.369 213.478 271.043 213.478H356.969C357.643 213.478 358.189 212.882 358.189 212.147V68.4272C358.189 67.6925 357.643 67.0969 356.969 67.0969Z" fill="#F2F2F2"/>
<g opacity="0.5">
<path opacity="0.5" d="M295.112 94.0635H279.881C279.206 94.0635 278.66 94.6591 278.66 95.3938V110.069C278.66 110.803 279.206 111.399 279.881 111.399H295.112C295.786 111.399 296.333 110.803 296.333 110.069V95.3938C296.333 94.6591 295.786 94.0635 295.112 94.0635Z" fill="#FF7A00"/>
</g>
<path d="M348.589 94.0635H302.401C301.978 94.0635 301.636 94.4367 301.636 94.8971V95.1573C301.636 95.6177 301.978 95.9909 302.401 95.9909H348.589C349.012 95.9909 349.354 95.6177 349.354 95.1573V94.8971C349.354 94.4367 349.012 94.0635 348.589 94.0635Z" fill="#E0E0E0"/>
<path d="M340.538 99.8398H302.401C301.978 99.8398 301.636 100.213 301.636 100.674V100.934C301.636 101.394 301.978 101.767 302.401 101.767H340.538C340.961 101.767 341.303 101.394 341.303 100.934V100.674C341.303 100.213 340.961 99.8398 340.538 99.8398Z" fill="#E0E0E0"/>
<g opacity="0.5">
<path opacity="0.5" d="M295.112 121.027H279.881C279.206 121.027 278.66 121.623 278.66 122.358V137.032C278.66 137.767 279.206 138.363 279.881 138.363H295.112C295.786 138.363 296.333 137.767 296.333 137.032V122.358C296.333 121.623 295.786 121.027 295.112 121.027Z" fill="#FF7A00"/>
</g>
<path d="M348.589 121.027H302.401C301.978 121.027 301.636 121.401 301.636 121.861V122.121C301.636 122.582 301.978 122.955 302.401 122.955H348.589C349.012 122.955 349.354 122.582 349.354 122.121V121.861C349.354 121.401 349.012 121.027 348.589 121.027Z" fill="#E0E0E0"/>
<path d="M348.589 126.804H302.401C301.978 126.804 301.636 127.177 301.636 127.638V127.898C301.636 128.358 301.978 128.731 302.401 128.731H348.589C349.012 128.731 349.354 128.358 349.354 127.898V127.638C349.354 127.177 349.012 126.804 348.589 126.804Z" fill="#E0E0E0"/>
<g opacity="0.5">
<path opacity="0.5" d="M295.112 147.991H279.881C279.206 147.991 278.66 148.587 278.66 149.322V163.996C278.66 164.731 279.206 165.327 279.881 165.327H295.112C295.786 165.327 296.333 164.731 296.333 163.996V149.322C296.333 148.587 295.786 147.991 295.112 147.991Z" fill="#FF7A00"/>
</g>
<path d="M348.589 147.991H302.401C301.978 147.991 301.636 148.364 301.636 148.825V149.085C301.636 149.545 301.978 149.919 302.401 149.919H348.589C349.012 149.919 349.354 149.545 349.354 149.085V148.825C349.354 148.364 349.012 147.991 348.589 147.991Z" fill="#E0E0E0"/>
<path d="M306.174 153.77H302.401C301.978 153.77 301.636 154.144 301.636 154.604V154.864C301.636 155.324 301.978 155.698 302.401 155.698H306.174C306.597 155.698 306.939 155.324 306.939 154.864V154.604C306.939 154.144 306.597 153.77 306.174 153.77Z" fill="#E0E0E0"/>
<g opacity="0.5">
<path opacity="0.5" d="M413.207 114.104H326.316C325.641 114.104 325.095 114.699 325.095 115.434V200.591C325.095 201.326 325.641 201.922 326.316 201.922H413.207C413.881 201.922 414.428 201.326 414.428 200.591V115.434C414.428 114.699 413.881 114.104 413.207 114.104Z" fill="url(#paint1_linear)"/>
</g>
<path d="M411.978 114.985H327.696C327.022 114.985 326.476 115.58 326.476 116.315V198.714C326.476 199.449 327.022 200.044 327.696 200.044H411.978C412.653 200.044 413.199 199.449 413.199 198.714V116.315C413.199 115.58 412.653 114.985 411.978 114.985Z" fill="white"/>
<g opacity="0.5">
<path opacity="0.5" d="M352.403 133.26H336.211C335.537 133.26 334.991 133.856 334.991 134.591V150.205C334.991 150.94 335.537 151.536 336.211 151.536H352.403C353.077 151.536 353.624 150.94 353.624 150.205V134.591C353.624 133.856 353.077 133.26 352.403 133.26Z" fill="#FF7A00"/>
</g>
<path d="M408.715 133.26H360.023C359.577 133.26 359.215 133.655 359.215 134.141V134.41C359.215 134.897 359.577 135.291 360.023 135.291H408.715C409.162 135.291 409.524 134.897 409.524 134.41V134.141C409.524 133.655 409.162 133.26 408.715 133.26Z" fill="#E0E0E0"/>
<path d="M408.715 139.353H360.023C359.577 139.353 359.215 139.747 359.215 140.234V140.503C359.215 140.99 359.577 141.384 360.023 141.384H408.715C409.162 141.384 409.524 140.99 409.524 140.503V140.234C409.524 139.747 409.162 139.353 408.715 139.353Z" fill="#E0E0E0"/>
<path d="M408.715 161.462H333.936C333.489 161.462 333.127 161.857 333.127 162.343V162.612C333.127 163.099 333.489 163.493 333.936 163.493H408.715C409.162 163.493 409.524 163.099 409.524 162.612V162.343C409.524 161.857 409.162 161.462 408.715 161.462Z" fill="#E0E0E0"/>
<path d="M408.715 167.555H333.936C333.489 167.555 333.127 167.95 333.127 168.436V168.705C333.127 169.192 333.489 169.586 333.936 169.586H408.715C409.162 169.586 409.524 169.192 409.524 168.705V168.436C409.524 167.95 409.162 167.555 408.715 167.555Z" fill="#E0E0E0"/>
<path d="M408.715 175.676H333.936C333.489 175.676 333.127 176.071 333.127 176.557V176.826C333.127 177.313 333.489 177.707 333.936 177.707H408.715C409.162 177.707 409.524 177.313 409.524 176.826V176.557C409.524 176.071 409.162 175.676 408.715 175.676Z" fill="#E0E0E0"/>
<path d="M390.082 181.769H333.936C333.489 181.769 333.127 182.163 333.127 182.65V182.919C333.127 183.406 333.489 183.8 333.936 183.8H390.082C390.528 183.8 390.89 183.406 390.89 182.919V182.65C390.89 182.163 390.528 181.769 390.082 181.769Z" fill="#E0E0E0"/>
<g opacity="0.5">
<path opacity="0.5" d="M416.587 146.965L416.905 145.422L416.46 146.93C404.89 143.524 392.963 141.771 380.978 141.715C294.629 141.159 254.469 224.327 254.469 224.327L336.298 271.378C336.298 271.378 346.335 237.459 381.982 238.564C384.434 238.637 386.88 238.87 389.306 239.262L378.461 276.076C377.998 276.795 377.671 277.608 377.501 278.467C377.332 279.326 377.322 280.213 377.473 281.076C377.623 281.939 377.932 282.76 378.379 283.491C378.826 284.222 379.404 284.848 380.077 285.331C380.751 285.814 381.506 286.145 382.299 286.303C383.092 286.462 383.906 286.446 384.693 286.256C385.481 286.065 386.224 285.705 386.881 285.195C387.538 284.685 388.094 284.037 388.517 283.289V283.289V283.271C389.08 282.274 389.386 281.131 389.404 279.96C389.404 279.762 389.404 279.564 389.385 279.369L397.224 241.192C420.58 249.02 427.658 271.375 427.658 271.375L510 226.515C510 226.515 479.076 165.46 416.587 146.965Z" fill="url(#paint2_linear)"/>
</g>
<path d="M380.995 142.637C295.747 142.096 256.096 224.197 256.096 224.197L336.884 270.642C336.884 270.642 346.796 237.154 381.987 238.233C384.466 238.306 386.938 238.545 389.39 238.948L416.142 147.822C404.683 144.437 392.867 142.694 380.995 142.637V142.637Z" fill="#FF7A00"/>
<path d="M416.142 147.823L389.39 238.957C418.584 243.791 427.088 270.642 427.088 270.642L508.372 226.358C508.372 226.358 477.831 166.08 416.142 147.823Z" fill="#E0E0E0"/>
<path d="M389.303 278.538L416.462 146.297L378.507 275.286C378.042 275.996 377.713 276.8 377.54 277.651C377.367 278.502 377.353 279.383 377.5 280.24C377.646 281.097 377.95 281.913 378.392 282.639C378.835 283.365 379.407 283.986 380.076 284.466C380.744 284.945 381.494 285.273 382.281 285.429C383.068 285.585 383.875 285.566 384.656 285.374C385.436 285.182 386.173 284.82 386.822 284.311C387.471 283.801 388.019 283.154 388.433 282.408V282.408V282.39C388.988 281.407 389.291 280.278 389.309 279.124C389.325 278.92 389.317 278.73 389.303 278.538Z" fill="#535461"/>
<g opacity="0.7">
<path opacity="0.7" d="M399.12 142.481L398.41 142.336L399.812 136.719C402.02 118.686 393.679 116.856 390.551 116.794C390.191 116.651 389.825 116.529 389.453 116.43V114.302C391.42 113.773 393.203 112.627 394.579 111.005C395.956 109.384 396.866 107.358 397.197 105.179H397.224C397.721 105.179 398.125 104.354 398.125 103.337C398.144 102.798 398.007 102.266 397.732 101.818C397.768 101.424 397.786 101.029 397.786 100.635C397.787 99.0436 397.491 97.4684 396.916 96.0053C396.341 94.5423 395.499 93.2218 394.441 92.1243C394.297 91.3379 394.038 90.5815 393.676 89.8835C392.908 88.4053 391.631 86.874 392.152 85.2747L388.78 85.6531L388.747 83.2319C387.695 83.4389 387.253 84.7662 386.629 85.7122C385.126 87.9885 382.112 88.3048 380.118 90.0786C379.44 90.6698 377.916 92.5145 378.206 93.7177C376.867 95.7253 376.147 98.1444 376.15 100.626C376.15 101.021 376.168 101.415 376.204 101.809C375.929 102.257 375.791 102.789 375.811 103.328C375.811 104.345 376.215 105.17 376.711 105.17H376.738C377.07 107.349 377.98 109.375 379.356 110.996C380.733 112.618 382.515 113.764 384.483 114.293V116.422C384.111 116.52 383.744 116.642 383.384 116.785C380.257 116.847 371.915 118.665 374.123 136.71L375.526 142.327L375.192 142.395C374.696 142.496 374.223 142.702 373.8 143.003C373.377 143.303 373.012 143.691 372.727 144.145C372.441 144.598 372.241 145.109 372.136 145.647C372.032 146.185 372.026 146.741 372.119 147.282L377.661 179.561C377.717 179.891 377.892 180.183 378.146 180.374C378.401 180.564 378.714 180.636 379.017 180.575L379.991 180.377V181.003C379.45 181.294 378.995 181.744 378.677 182.302C378.359 182.86 378.19 183.504 378.19 184.161V184.56H384.722V184.161C384.721 183.551 384.576 182.952 384.3 182.422C384.024 181.892 383.626 181.449 383.146 181.136V179.732L384.035 179.552C384.339 179.49 384.607 179.3 384.781 179.023C384.956 178.745 385.022 178.404 384.966 178.074L379.774 147.749H394.17L388.983 178.077C388.927 178.407 388.993 178.748 389.168 179.026C389.342 179.303 389.611 179.493 389.914 179.555L390.803 179.735V181.139C390.323 181.452 389.925 181.895 389.649 182.425C389.373 182.955 389.228 183.554 389.227 184.164V184.563H395.759V184.164C395.759 183.507 395.59 182.863 395.272 182.305C394.954 181.747 394.499 181.297 393.958 181.006V180.38L394.932 180.578C395.235 180.639 395.548 180.567 395.803 180.377C396.057 180.186 396.232 179.894 396.288 179.564L401.887 146.88C401.971 146.393 401.966 145.893 401.872 145.408C401.778 144.923 401.597 144.464 401.34 144.055C401.083 143.647 400.755 143.297 400.374 143.027C399.993 142.757 399.567 142.571 399.12 142.481Z" fill="url(#paint3_linear)"/>
</g>
<path d="M383.292 176.268H380.259V180.755H383.292V176.268Z" fill="#FDB797"/>
<path d="M393.692 176.268H390.66V180.755H393.692V176.268Z" fill="#FDB797"/>
<path d="M396.945 139.433H377.01V147.225H396.945V139.433Z" fill="#4D8AF0"/>
<g opacity="0.05">
<path opacity="0.05" d="M396.945 139.433H377.01V147.225H396.945V139.433Z" fill="black"/>
</g>
<path opacity="0.1" d="M377.01 140.849C377.01 140.849 384.448 142.738 386.976 142.738C389.504 142.738 396.942 140.849 396.942 140.849V139.667H377.01V140.849Z" fill="black"/>
<path d="M396.942 140.612C396.942 140.612 389.504 142.501 386.976 142.501C384.448 142.501 377.01 140.612 377.01 140.612V127.626C377.01 124.745 378.06 121.982 379.929 119.946C381.798 117.909 384.333 116.764 386.976 116.764V116.764C389.619 116.764 392.154 117.909 394.023 119.946C395.892 121.982 396.942 124.745 396.942 127.626V140.612Z" fill="#F55F44"/>
<path d="M384.594 111.331H389.36V117.58C389.36 118.177 389.143 118.749 388.756 119.171C388.369 119.593 387.844 119.83 387.296 119.83H386.661C386.114 119.83 385.589 119.593 385.202 119.171C384.814 118.749 384.597 118.177 384.597 117.58V111.331H384.594Z" fill="#FDB797"/>
<path d="M383.862 177.882L379.589 178.751C379.225 178.822 378.85 178.734 378.545 178.506C378.24 178.277 378.03 177.926 377.962 177.53L372.867 147.778C372.756 147.127 372.763 146.458 372.888 145.81C373.013 145.161 373.255 144.546 373.598 144C373.942 143.453 374.381 142.986 374.891 142.624C375.4 142.263 375.97 142.014 376.568 141.892L377.669 141.668C378.033 141.596 378.409 141.684 378.713 141.913C379.018 142.141 379.228 142.492 379.296 142.889L384.993 176.096C385.027 176.294 385.025 176.498 384.986 176.695C384.948 176.892 384.874 177.079 384.769 177.245C384.663 177.411 384.529 177.553 384.374 177.662C384.218 177.771 384.044 177.846 383.862 177.882Z" fill="#4D8AF0"/>
<path d="M390.079 177.882L394.352 178.751C394.716 178.823 395.091 178.735 395.396 178.506C395.701 178.277 395.911 177.926 395.979 177.53L401.16 147.282C401.363 146.098 401.125 144.876 400.501 143.883C399.876 142.89 398.915 142.208 397.829 141.987L396.272 141.671C395.908 141.599 395.533 141.687 395.228 141.916C394.923 142.145 394.713 142.495 394.645 142.892L388.948 176.099C388.914 176.297 388.917 176.5 388.956 176.697C388.994 176.894 389.068 177.081 389.174 177.247C389.279 177.412 389.413 177.554 389.568 177.663C389.724 177.772 389.897 177.846 390.079 177.882Z" fill="#4D8AF0"/>
<path opacity="0.1" d="M384.594 115.269C386.16 115.688 387.795 115.688 389.36 115.269V111.567H384.594V115.269Z" fill="black"/>
<path d="M386.976 113.22C392.72 113.22 397.376 108.145 397.376 101.886C397.376 95.626 392.72 90.5515 386.976 90.5515C381.232 90.5515 376.576 95.626 376.576 101.886C376.576 108.145 381.232 113.22 386.976 113.22Z" fill="#333333"/>
<path d="M386.976 115.345C392.48 115.345 396.942 110.483 396.942 104.484C396.942 98.4858 392.48 93.623 386.976 93.623C381.472 93.623 377.01 98.4858 377.01 104.484C377.01 110.483 381.472 115.345 386.976 115.345Z" fill="#FDB797"/>
<path d="M380.395 91.7369C382.313 90.0312 385.213 89.7267 386.656 87.5361C387.255 86.6256 387.681 85.3455 388.693 85.1475L388.723 87.477L391.978 87.1134C391.476 88.6506 392.705 90.1287 393.446 91.5477C393.99 92.5963 394.287 93.7755 394.311 94.9799C393.185 95.716 391.788 94.9119 390.535 94.4832C389.282 94.0546 388.02 94.0221 386.737 93.9836C386.082 93.934 385.425 93.9737 384.779 94.1019C384.22 94.2653 383.675 94.482 383.151 94.7493C382.289 95.1425 379.562 96.6295 378.762 95.6716C377.861 94.5867 379.655 92.3961 380.395 91.7369Z" fill="#333333"/>
<path opacity="0.1" d="M380.938 99.0357C381.482 99.3614 382.082 99.5625 382.701 99.627C385.254 100.008 387.854 99.6895 390.266 98.7017C390.662 99.7925 391.623 100.543 392.651 100.898C393.679 101.253 394.769 101.271 395.846 101.288C396.083 101.317 396.322 101.268 396.533 101.146C397.013 100.795 396.779 99.9847 396.5 99.4348L395.111 96.6914C394.702 95.8814 394.278 95.0537 393.644 94.4418C392.846 93.6731 391.788 93.3125 390.747 93.0848C388.281 92.5498 385.736 92.6419 383.308 93.3539C380.712 94.1018 377.379 96.6885 380.938 99.0357Z" fill="black"/>
<path d="M380.938 98.7992C381.482 99.1248 382.082 99.326 382.701 99.3904C385.254 99.7709 387.854 99.453 390.266 98.4651C390.662 99.556 391.623 100.307 392.651 100.662C393.679 101.016 394.769 101.034 395.846 101.052C396.083 101.081 396.322 101.031 396.533 100.91C397.013 100.558 396.779 99.7481 396.5 99.1982L395.111 96.4549C394.702 95.6449 394.278 94.8171 393.644 94.2052C392.846 93.4366 391.788 93.0759 390.747 92.8483C388.281 92.3133 385.736 92.4053 383.308 93.1173C380.712 93.8593 377.379 96.4549 380.938 98.7992Z" fill="#333333"/>
<path d="M396.836 106.255C397.316 106.255 397.704 105.462 397.704 104.484C397.704 103.506 397.316 102.714 396.836 102.714C396.357 102.714 395.968 103.506 395.968 104.484C395.968 105.462 396.357 106.255 396.836 106.255Z" fill="#FDB797"/>
<path d="M377.118 106.255C377.598 106.255 377.986 105.462 377.986 104.484C377.986 103.506 377.598 102.714 377.118 102.714C376.639 102.714 376.25 103.506 376.25 104.484C376.25 105.462 376.639 106.255 377.118 106.255Z" fill="#FDB797"/>
<path d="M384.632 117.486C384.632 117.486 372.024 115.345 374.625 136.598L376.142 142.691L380.482 142.501C380.482 142.501 377.666 135.406 379.397 130.694C381.127 125.982 384.632 117.486 384.632 117.486Z" fill="#F55F44"/>
<path d="M389.32 117.486C389.32 117.486 401.928 115.345 399.327 136.598L397.81 142.691L393.47 142.501C393.47 142.501 396.286 135.406 394.555 130.694C392.825 125.982 389.32 117.486 389.32 117.486Z" fill="#F55F44"/>
<path d="M378.526 146.043C379.843 146.043 380.91 144.879 380.91 143.444C380.91 142.009 379.843 140.846 378.526 140.846C377.209 140.846 376.142 142.009 376.142 143.444C376.142 144.879 377.209 146.043 378.526 146.043Z" fill="#FDB797"/>
<path d="M395.86 146.043C397.177 146.043 398.244 144.879 398.244 143.444C398.244 142.009 397.177 140.846 395.86 140.846C394.543 140.846 393.475 142.009 393.475 143.444C393.475 144.879 394.543 146.043 395.86 146.043Z" fill="#FDB797"/>
<path d="M381.25 178.866H382.088C382.807 178.866 383.497 179.178 384.006 179.732C384.515 180.286 384.8 181.038 384.8 181.822V182.632H378.526V181.822C378.526 181.433 378.597 181.048 378.734 180.688C378.871 180.329 379.071 180.003 379.324 179.728C379.577 179.453 379.878 179.236 380.208 179.088C380.539 178.94 380.892 178.865 381.25 178.866V178.866Z" fill="#333333"/>
<path d="M391.867 178.866H392.705C393.425 178.866 394.114 179.178 394.623 179.732C395.132 180.286 395.418 181.038 395.418 181.822V182.632H389.143V181.822C389.143 181.433 389.214 181.048 389.351 180.688C389.488 180.329 389.689 180.003 389.942 179.728C390.195 179.453 390.495 179.236 390.825 179.088C391.156 178.94 391.51 178.865 391.867 178.866V178.866Z" fill="#333333"/>
<path opacity="0.1" d="M379.177 128.805C379.177 128.805 378.309 133.763 379.828 135.9Z" fill="black"/>
<path opacity="0.1" d="M394.778 128.805C394.778 128.805 395.646 133.763 394.127 135.9Z" fill="black"/>
<mask id="mask0" mask-type="alpha" maskUnits="userSpaceOnUse" x="0" y="77" width="173" height="207">
<path d="M123.812 157.176C139.364 161.016 151.268 168.024 159.524 178.2C167.972 188.184 172.196 200.28 172.196 214.488C172.196 226.584 168.836 237.912 162.116 248.472C155.588 258.84 145.412 267.288 131.588 273.816C117.764 280.344 100.58 283.608 80.0362 283.608C65.8282 283.608 51.6202 282.072 37.4122 279C23.3962 275.928 11.1082 271.416 0.548207 265.464L23.5882 215.352C31.8442 220.152 40.6762 223.8 50.0842 226.296C59.6842 228.792 68.9002 230.04 77.7322 230.04C85.6042 230.04 91.9402 228.696 96.7402 226.008C101.54 223.32 103.94 219.48 103.94 214.488C103.94 205.272 95.9722 200.664 80.0362 200.664H53.2522V158.904L82.9162 128.664H10.9162V77.4H161.252V119.16L123.812 157.176Z" fill="#FF7A00"/>
</mask>
<g mask="url(#mask0)">
<rect x="-27.4" y="30" width="237.171" height="260" rx="118.585" fill="url(#paint4_linear)"/>
</g>
<defs>
<linearGradient id="paint0_linear" x1="314.006" y1="215.402" x2="314.006" y2="66" gradientUnits="userSpaceOnUse">
<stop stop-color="#808080" stop-opacity="0.25"/>
<stop offset="0.54" stop-color="#808080" stop-opacity="0.12"/>
<stop offset="1" stop-color="#808080" stop-opacity="0.1"/>
</linearGradient>
<linearGradient id="paint1_linear" x1="38293.4" y1="40491" x2="38293.4" y2="14403.8" gradientUnits="userSpaceOnUse">
<stop stop-color="#808080" stop-opacity="0.25"/>
<stop offset="0.54" stop-color="#808080" stop-opacity="0.12"/>
<stop offset="1" stop-color="#808080" stop-opacity="0.1"/>
</linearGradient>
<linearGradient id="paint2_linear" x1="153573" y1="119426" x2="153573" y2="48597.1" gradientUnits="userSpaceOnUse">
<stop stop-color="#808080" stop-opacity="0.25"/>
<stop offset="0.54" stop-color="#808080" stop-opacity="0.12"/>
<stop offset="1" stop-color="#808080" stop-opacity="0.1"/>
</linearGradient>
<linearGradient id="paint3_linear" x1="18833.6" y1="48703.7" x2="18833.6" y2="13970.6" gradientUnits="userSpaceOnUse">
<stop stop-color="#808080" stop-opacity="0.25"/>
<stop offset="0.54" stop-color="#808080" stop-opacity="0.12"/>
<stop offset="1" stop-color="#808080" stop-opacity="0.1"/>
</linearGradient>
<linearGradient id="paint4_linear" x1="-27.4" y1="158.395" x2="209.771" y2="158.395" gradientUnits="userSpaceOnUse">
<stop stop-color="#FFB800"/>
<stop offset="1" stop-color="#E76F00"/>
</linearGradient>
</defs>
</svg>
