<svg width="19" height="35" viewBox="0 0 19 35" fill="none" xmlns="http://www.w3.org/2000/svg">
<path d="M18.2102 0.00728234L13.6715 0C8.5724 0 5.27714 3.38082 5.27714 8.61355V12.585H0.713669C0.319331 12.585 0 12.9047 0 13.299V19.0531C0 19.4475 0.319695 19.7668 0.713669 19.7668H5.27714V34.2863C5.27714 34.6807 5.59647 35 5.99081 35H11.9449C12.3392 35 12.6585 34.6803 12.6585 34.2863V19.7668H17.9943C18.3886 19.7668 18.708 19.4475 18.708 19.0531L18.7101 13.299C18.7101 13.1097 18.6348 12.9283 18.5011 12.7943C18.3675 12.6603 18.1854 12.585 17.9961 12.585H12.6585V9.21835C12.6585 7.60021 13.0441 6.77876 15.152 6.77876L18.2095 6.77767C18.6035 6.77767 18.9228 6.45798 18.9228 6.064V0.720951C18.9228 0.327341 18.6038 0.00801057 18.2102 0.00728234Z" fill="white"/>
</svg>
