<svg width="35" height="35" viewBox="0 0 35 35" fill="none" xmlns="http://www.w3.org/2000/svg">
<g clip-path="url(#clip0)">
<path d="M34.9657 10.2901C34.8837 8.43041 34.583 7.15189 34.1522 6.04404C33.7078 4.86808 33.0241 3.81525 32.1283 2.94003C31.253 2.05118 30.1933 1.36051 29.0309 0.923032C27.9167 0.49223 26.6448 0.191497 24.7851 0.109503C22.9116 0.0205652 22.3168 0 17.5649 0C12.813 0 12.2182 0.0205652 10.3516 0.102559C8.49187 0.184553 7.21335 0.485553 6.10577 0.916088C4.92955 1.36051 3.87671 2.04424 3.00149 2.94003C2.11264 3.81525 1.42224 4.87503 0.984494 6.03736C0.553692 7.15189 0.252959 8.42347 0.170966 10.2832C0.0820276 12.1567 0.0614624 12.7515 0.0614624 17.5034C0.0614624 22.2553 0.0820276 22.8501 0.164021 24.7167C0.246015 26.5764 0.547015 27.8549 0.977817 28.9628C1.42224 30.1388 2.11264 31.1916 3.00149 32.0668C3.87671 32.9557 4.93649 33.6463 6.09883 34.0838C7.21335 34.5146 8.48493 34.8153 10.3449 34.8973C12.2112 34.9796 12.8063 34.9999 17.5582 34.9999C22.3101 34.9999 22.9049 34.9796 24.7715 34.8973C26.6312 34.8153 27.9097 34.5146 29.0173 34.0838C31.3695 33.1744 33.2292 31.3147 34.1386 28.9628C34.5691 27.8483 34.8701 26.5764 34.9521 24.7167C35.0341 22.8501 35.0547 22.2553 35.0547 17.5034C35.0547 12.7515 35.0477 12.1567 34.9657 10.2901ZM31.8139 24.58C31.7386 26.2893 31.4515 27.2123 31.2122 27.8277C30.6241 29.3525 29.4139 30.5626 27.8892 31.1507C27.2738 31.39 26.3441 31.6771 24.6414 31.7522C22.7954 31.8344 22.2417 31.8547 17.5718 31.8547C12.9019 31.8547 12.3413 31.8344 10.5019 31.7522C8.7926 31.6771 7.86957 31.39 7.25422 31.1507C6.49544 30.8703 5.80477 30.4259 5.24417 29.8447C4.663 29.2771 4.21858 28.5934 3.93814 27.8346C3.69884 27.2193 3.41173 26.2893 3.33668 24.5869C3.25441 22.7409 3.23412 22.187 3.23412 17.517C3.23412 12.8471 3.25441 12.2865 3.33668 10.4474C3.41173 8.73809 3.69884 7.81506 3.93814 7.1997C4.21858 6.44066 4.663 5.75025 5.25111 5.18938C5.81839 4.60821 6.50212 4.16379 7.26116 3.88362C7.87652 3.64432 8.80649 3.35721 10.5089 3.28189C12.3549 3.1999 12.9089 3.17933 17.5785 3.17933C22.2553 3.17933 22.809 3.1999 24.6484 3.28189C26.3577 3.35721 27.2807 3.64432 27.8961 3.88362C28.6549 4.16379 29.3455 4.60821 29.9061 5.18938C30.4873 5.75693 30.9317 6.44066 31.2122 7.1997C31.4515 7.81506 31.7386 8.74477 31.8139 10.4474C31.8959 12.2935 31.9165 12.8471 31.9165 17.517C31.9165 22.187 31.8959 22.7339 31.8139 24.58Z" fill="white"/>
<path d="M17.5649 8.51245C12.6012 8.51245 8.57391 12.5395 8.57391 17.5035C8.57391 22.4674 12.6012 26.4945 17.5649 26.4945C22.5289 26.4945 26.5559 22.4674 26.5559 17.5035C26.5559 12.5395 22.5289 8.51245 17.5649 8.51245ZM17.5649 23.3357C14.3447 23.3357 11.7327 20.7239 11.7327 17.5035C11.7327 14.283 14.3447 11.6712 17.5649 11.6712C20.7854 11.6712 23.3972 14.283 23.3972 17.5035C23.3972 20.7239 20.7854 23.3357 17.5649 23.3357Z" fill="white"/>
<path d="M29.0106 8.15685C29.0106 9.31599 28.0708 10.2558 26.9114 10.2558C25.7522 10.2558 24.8124 9.31599 24.8124 8.15685C24.8124 6.99745 25.7522 6.05786 26.9114 6.05786C28.0708 6.05786 29.0106 6.99745 29.0106 8.15685Z" fill="white"/>
</g>
<defs>
<clipPath id="clip0">
<rect width="35" height="35" fill="white"/>
</clipPath>
</defs>
</svg>
