<svg width="35" height="35" viewBox="0 0 35 35" fill="none" xmlns="http://www.w3.org/2000/svg">
<path d="M17.5 0C7.83535 0 0 7.83499 0 17.5C0 27.165 7.83535 35 17.5 35C27.1647 35 35 27.165 35 17.5C35 7.83499 27.1647 0 17.5 0ZM19.5137 23.3127C17.8949 23.3127 16.3725 22.4376 15.8512 21.444C15.8512 21.444 14.9804 24.8974 14.7974 25.5638C14.1482 27.9198 12.2387 30.2765 12.0901 30.4695C11.9866 30.6038 11.7579 30.5619 11.7342 30.3836C11.6938 30.0835 11.2061 27.1113 11.7797 24.6873C12.0665 23.4699 13.7071 16.5186 13.7071 16.5186C13.7071 16.5186 13.2295 15.5615 13.2295 14.1464C13.2295 11.9247 14.517 10.2662 16.1204 10.2662C17.4835 10.2662 18.1416 11.2899 18.1416 12.5169C18.1416 13.8876 17.2694 15.9371 16.8193 17.8362C16.443 19.4263 17.616 20.7236 19.1843 20.7236C22.0248 20.7236 23.9364 17.0757 23.9364 12.7529C23.9364 9.46808 21.7251 7.00824 17.6998 7.00824C13.1536 7.00824 10.3185 10.3994 10.3185 14.188C10.3185 15.4935 10.7045 16.4154 11.3081 17.1276C11.5849 17.4552 11.6243 17.587 11.5237 17.963C11.451 18.239 11.2874 18.9029 11.2179 19.1653C11.118 19.5456 10.8108 19.6809 10.4667 19.5409C8.3735 18.6862 7.39744 16.3925 7.39744 13.8142C7.39744 9.55581 10.9884 4.44957 18.1112 4.44957C23.8347 4.44957 27.6018 8.59084 27.6018 13.0372C27.6022 18.9193 24.3321 23.3127 19.5137 23.3127Z" fill="white"/>
</svg>
